<?xml version="1.0" standalone="no"?><!DOCTYPE svg PUBLIC "-//W3C//DTD SVG 1.1//EN" "http://www.w3.org/Graphics/SVG/1.1/DTD/svg11.dtd"><svg t="1537237792103" class="icon" style="" viewBox="0 0 1024 1024" version="1.1" xmlns="http://www.w3.org/2000/svg" p-id="6093" xmlns:xlink="http://www.w3.org/1999/xlink" width="200" height="200"><defs><style type="text/css"></style></defs><path d="M282.781014 740.755417C289.105421 747.079824 297.1018 750.278375 305.025484 750.278375 312.94917 750.278375 320.945546 747.079824 327.269956 740.755417L511.768214 556.257156 696.19378 740.755417C702.590882 747.079824 710.514566 750.278375 718.510945 750.278375 726.507324 750.278375 734.431008 747.079824 740.82811 740.755417 753.549621 727.96121 753.549621 708.915292 740.82811 696.19378L556.257156 511.768214 740.755417 327.342651C753.476926 314.621139 753.476926 295.502526 740.755417 282.781014 727.96121 270.059503 708.915292 270.059503 696.19378 282.781014L511.768214 467.279273 327.269956 282.781014C314.548444 270.059503 295.42983 270.059503 282.781014 282.781014 270.059503 295.502526 270.059503 314.621139 282.781014 327.342651L467.279273 511.768214 282.781014 696.19378C270.059503 708.987985 270.059503 728.033905 282.781014 740.755417L282.781014 740.755417 282.781014 740.755417ZM511.768214 1020.628661C646.907011 1020.628661 775.721398 968.14334 871.096385 871.096385 966.544066 775.721398 1020.628661 646.907011 1020.628661 511.768214 1020.628661 376.629418 968.14334 247.815031 871.096385 152.367351 775.721398 55.393088 646.907011 2.907768 511.768214 2.907768 376.629418 2.907768 247.815031 55.393088 152.367351 152.367351 55.393088 247.815031 2.907768 376.629418 2.907768 511.768214 2.907768 646.907011 55.393088 775.721398 152.367351 871.096385 247.815031 968.14334 376.629418 1020.628661 511.768214 1020.628661L511.768214 1020.628661 511.768214 1020.628661ZM196.928987 196.928987C281.181737 112.603541 392.476787 66.515324 511.768214 66.515324 631.059643 66.515324 742.354691 112.603541 826.607442 196.928987 910.860194 281.181737 957.021106 392.476787 957.021106 511.768214 957.021106 631.059643 910.860194 742.354691 826.607442 826.607442 742.354691 910.860194 631.059643 957.021106 511.768214 957.021106 392.476787 957.021106 281.181737 910.860194 196.928987 826.607442 112.603541 742.354691 66.515324 631.059643 66.515324 511.768214 66.515324 392.476787 112.603541 281.181737 196.928987 196.928987L196.928987 196.928987 196.928987 196.928987Z" p-id="6094"></path></svg>